<?xml version="1.0" encoding="UTF-8"?>
<!DOCTYPE svg PUBLIC "-//W3C//DTD SVG 1.1//EN" "http://www.w3.org/Graphics/SVG/1.1/DTD/svg11.dtd">
<svg xmlns="http://www.w3.org/2000/svg" version="1.1" width="120px" height="80px" style="shape-rendering:geometricPrecision; text-rendering:geometricPrecision; image-rendering:optimizeQuality; fill-rule:evenodd; clip-rule:evenodd" xmlns:xlink="http://www.w3.org/1999/xlink">
<g><path style="opacity:1" fill="#eaafa6" d="M 53.5,5.5 C 49.1667,5.5 44.8333,5.5 40.5,5.5C 44.8333,2.83333 49.1667,2.83333 53.5,5.5 Z"/></g>
<g><path style="opacity:0.016" fill="#fff1ed" d="M 10.5,4.5 C 11.9063,4.97306 12.573,5.97306 12.5,7.5C 11.2931,7.62158 10.6264,6.62158 10.5,4.5 Z"/></g>
<g><path style="opacity:1" fill="#fa8071" d="M 4.5,6.5 C 7.23747,6.3697 9.23747,7.53637 10.5,10C 8.99479,16.521 8.32812,23.3543 8.5,30.5C 7.16667,30.5 5.83333,30.5 4.5,30.5C 4.32588,28.139 3.99255,25.8056 3.5,23.5C 3.5,21.8333 3.5,20.1667 3.5,18.5C 3.18325,14.2984 3.51658,10.2984 4.5,6.5 Z"/></g>
<g><path style="opacity:1" fill="#fc7e6c" d="M 53.5,6.5 C 55.9642,7.82659 56.9642,9.99326 56.5,13C 56.1667,14.5 55.8333,16 55.5,17.5C 53.8888,16.6798 53.2222,15.3464 53.5,13.5C 53.5852,12.0047 52.9185,11.0047 51.5,10.5C 49.4363,12.9779 47.4363,12.9779 45.5,10.5C 44.914,10.7093 44.414,11.0426 44,11.5C 43.5065,9.86586 43.3398,8.19919 43.5,6.5C 46.8333,6.5 50.1667,6.5 53.5,6.5 Z"/></g>
<g><path style="opacity:1" fill="#f1aba2" d="M 73.5,13.5 C 72.2586,11.4913 70.5919,9.82462 68.5,8.5C 67.265,9.33977 66.265,10.3398 65.5,11.5C 65.1667,11.5 64.8333,11.5 64.5,11.5C 65.5163,5.55418 68.0163,4.55418 72,8.5C 72.6077,10.1545 73.1077,11.8211 73.5,13.5 Z"/></g>
<g><path style="opacity:1" fill="#eda399" d="M 37.5,8.5 C 33.9865,6.86931 30.9865,7.53598 28.5,10.5C 29.5882,6.25224 32.2548,4.75224 36.5,6C 37.2524,6.67076 37.5858,7.5041 37.5,8.5 Z"/></g>
<g><path style="opacity:1" fill="#ffeee4" d="M 5.5,4.5 C 5.16667,5.16667 4.83333,5.83333 4.5,6.5C 3.51658,10.2984 3.18325,14.2984 3.5,18.5C 2.35303,14.3537 2.18636,10.0204 3,5.5C 3.67076,4.74756 4.5041,4.41423 5.5,4.5 Z"/></g>
<g><path style="opacity:1" fill="#fc7f6d" d="M 17.5,9.5 C 17.22,12.2724 17.8866,14.7724 19.5,17C 18.0325,18.0975 17.1992,19.5975 17,21.5C 16.2798,19.9443 15.1132,18.9443 13.5,18.5C 12.6575,15.846 12.1575,13.1794 12,10.5C 13.6995,9.59391 15.5328,9.26057 17.5,9.5 Z"/></g>
<g><path style="opacity:1" fill="#f9806e" d="M 37.5,8.5 C 37.5,13.8333 37.5,19.1667 37.5,24.5C 36.596,25.209 36.2627,26.209 36.5,27.5C 35.1667,27.5 33.8333,27.5 32.5,27.5C 32.5,26.1667 32.5,24.8333 32.5,23.5C 33.8333,23.5 35.1667,23.5 36.5,23.5C 37.3051,16.1474 34.3051,13.4807 27.5,15.5C 28.3007,13.9582 28.634,12.2915 28.5,10.5C 30.9865,7.53598 33.9865,6.86931 37.5,8.5 Z"/></g>
<g><path style="opacity:1" fill="#f29388" d="M 99.5,5.5 C 100.5,5.5 101.5,5.5 102.5,5.5C 101.432,6.43448 100.099,6.76781 98.5,6.5C 98.5,8.5 98.5,10.5 98.5,12.5C 101.216,12.3862 103.216,13.3862 104.5,15.5C 104.5,20.5 104.5,25.5 104.5,30.5C 103.833,25.1667 103.167,19.8333 102.5,14.5C 99.1922,15.0262 97.0255,13.6928 96,10.5C 96.8468,14.0116 96.0134,17.1783 93.5,20C 91.5594,20.7429 89.7261,20.5762 88,19.5C 88.0713,10.6176 86.5713,10.2843 83.5,18.5C 83.8076,16.076 83.4742,13.7427 82.5,11.5C 79.1434,13.7462 77.8101,16.9128 78.5,21C 78.5056,23.0326 78.8389,24.866 79.5,26.5C 79.5,27.5 79.5,28.5 79.5,29.5C 78.0937,29.0269 77.427,28.0269 77.5,26.5C 77.5,23.5 77.5,20.5 77.5,17.5C 79.6082,5.43901 85.6082,2.77234 95.5,9.5C 96.0046,7.23053 97.3379,5.8972 99.5,5.5 Z"/></g>
<g><path style="opacity:1" fill="#fb806a" d="M 85.5,7.5 C 91.7963,7.04275 94.7963,10.0427 94.5,16.5C 93.0695,16.4208 91.7362,16.7542 90.5,17.5C 90.3903,15.9018 90.057,14.2352 89.5,12.5C 87.6641,11.081 85.6641,9.91434 83.5,9C 84.4158,8.72158 85.0825,8.22158 85.5,7.5 Z"/></g>
<g><path style="opacity:1" fill="#f78275" d="M 40.5,5.5 C 44.8333,5.5 49.1667,5.5 53.5,5.5C 53.5,5.83333 53.5,6.16667 53.5,6.5C 50.1667,6.5 46.8333,6.5 43.5,6.5C 43.3398,8.19919 43.5065,9.86586 44,11.5C 44.414,11.0426 44.914,10.7093 45.5,10.5C 47.4363,12.9779 49.4363,12.9779 51.5,10.5C 52.9185,11.0047 53.5852,12.0047 53.5,13.5C 52.5,13.5 51.5,13.5 50.5,13.5C 49.5,13.5 48.5,13.5 47.5,13.5C 46.5084,13.3284 45.8417,13.6618 45.5,14.5C 44.596,15.209 44.2627,16.209 44.5,17.5C 43.1667,17.5 41.8333,17.5 40.5,17.5C 40.5,21.8333 40.5,26.1667 40.5,30.5C 41.8333,30.5 43.1667,30.5 44.5,30.5C 44.2627,29.209 44.596,28.209 45.5,27.5C 46.17,30.5904 45.0033,32.257 42,32.5C 40.6244,32.3158 39.7911,31.6491 39.5,30.5C 39.5,22.5 39.5,14.5 39.5,6.5C 39.5,5.83333 39.8333,5.5 40.5,5.5 Z"/></g>
<g><path style="opacity:1" fill="#f98272" d="M 73.5,13.5 C 74.5664,15.7014 75.233,18.0347 75.5,20.5C 75.5,24.1667 75.5,27.8333 75.5,31.5C 73.8716,32.8528 72.5383,32.5195 71.5,30.5C 71.2488,28.8297 70.5822,27.3297 69.5,26C 71.1723,22.8571 70.5056,20.3571 67.5,18.5C 66.8933,18.6236 66.56,18.9569 66.5,19.5C 65.0347,17.4537 65.368,15.6204 67.5,14C 66.244,13.5831 65.5774,12.7498 65.5,11.5C 66.265,10.3398 67.265,9.33977 68.5,8.5C 70.5919,9.82462 72.2586,11.4913 73.5,13.5 Z"/></g>
<g><path style="opacity:1" fill="#fb7f6e" d="M 102.5,5.5 C 106.466,6.16213 110.466,6.49546 114.5,6.5C 114.5,7.83333 114.5,9.16667 114.5,10.5C 112.5,10.5 110.5,10.5 108.5,10.5C 106.444,11.6223 105.111,13.2889 104.5,15.5C 103.216,13.3862 101.216,12.3862 98.5,12.5C 98.5,10.5 98.5,8.5 98.5,6.5C 100.099,6.76781 101.432,6.43448 102.5,5.5 Z"/></g>
<g><path style="opacity:1" fill="#f39f94" d="M 99.5,5.5 C 101.641,4.8367 103.975,4.50337 106.5,4.5C 110.2,4.34279 113.7,5.00946 117,6.5C 117.342,10.345 115.508,12.6783 111.5,13.5C 110.548,15.0453 110.215,16.712 110.5,18.5C 109.833,20.8333 109.167,23.1667 108.5,25.5C 108.692,20.3493 108.692,15.3493 108.5,10.5C 110.5,10.5 112.5,10.5 114.5,10.5C 114.5,9.16667 114.5,7.83333 114.5,6.5C 110.466,6.49546 106.466,6.16213 102.5,5.5C 101.5,5.5 100.5,5.5 99.5,5.5 Z"/></g>
<g><path style="opacity:0.984" fill="#f38f82" d="M 5.5,4.5 C 7.16667,4.5 8.83333,4.5 10.5,4.5C 10.6264,6.62158 11.2931,7.62158 12.5,7.5C 14.4024,6.48905 16.4024,6.32239 18.5,7C 19.2524,7.67076 19.5858,8.5041 19.5,9.5C 18.8333,9.5 18.1667,9.5 17.5,9.5C 15.5328,9.26057 13.6995,9.59391 12,10.5C 12.1575,13.1794 12.6575,15.846 13.5,18.5C 13.5,23.1667 13.5,27.8333 13.5,32.5C 14.5,32.5 15.5,32.5 16.5,32.5C 16.2627,31.209 16.596,30.209 17.5,29.5C 17.5,30.8333 17.5,32.1667 17.5,33.5C 15.2439,36.3053 13.5772,35.972 12.5,32.5C 12.8885,27.3722 12.3885,22.3722 11,17.5C 10.5172,18.448 10.3505,19.448 10.5,20.5C 10.8368,24.3076 10.3368,27.9743 9,31.5C 7.30054,32.4061 5.4672,32.7394 3.5,32.5C 2.63166,29.3273 2.63166,26.3273 3.5,23.5C 3.99255,25.8056 4.32588,28.139 4.5,30.5C 5.83333,30.5 7.16667,30.5 8.5,30.5C 8.32812,23.3543 8.99479,16.521 10.5,10C 9.23747,7.53637 7.23747,6.3697 4.5,6.5C 4.83333,5.83333 5.16667,5.16667 5.5,4.5 Z"/></g>
<g><path style="opacity:1" fill="#fc7f6d" d="M 108.5,10.5 C 108.692,15.3493 108.692,20.3493 108.5,25.5C 108.5,27.1667 108.5,28.8333 108.5,30.5C 107.167,30.5 105.833,30.5 104.5,30.5C 104.5,25.5 104.5,20.5 104.5,15.5C 105.111,13.2889 106.444,11.6223 108.5,10.5 Z"/></g>
<g><path style="opacity:1" fill="#fd7f6f" d="M 32.5,23.5 C 31.4479,21.744 29.7812,21.0773 27.5,21.5C 27.5,19.5 27.5,17.5 27.5,15.5C 34.3051,13.4807 37.3051,16.1474 36.5,23.5C 35.1667,23.5 33.8333,23.5 32.5,23.5 Z"/></g>
<g><path style="opacity:1" fill="#fa8072" d="M 83.5,18.5 C 83.5,18.8333 83.5,19.1667 83.5,19.5C 81.9182,21.5626 80.5849,23.8959 79.5,26.5C 78.8389,24.866 78.5056,23.0326 78.5,21C 77.8101,16.9128 79.1434,13.7462 82.5,11.5C 83.4742,13.7427 83.8076,16.076 83.5,18.5 Z"/></g>
<g><path style="opacity:1" fill="#f4978b" d="M 53.5,5.5 C 55.371,5.85883 56.871,6.85883 58,8.5C 59.5809,14.0616 58.0809,18.5616 53.5,22C 50.3156,22.7542 47.6489,24.2542 45.5,26.5C 45.2444,22.65 45.2444,18.65 45.5,14.5C 45.8417,13.6618 46.5084,13.3284 47.5,13.5C 45.4251,19.6287 46.5917,20.6287 51,16.5C 51.4696,15.4232 51.3029,14.4232 50.5,13.5C 51.5,13.5 52.5,13.5 53.5,13.5C 53.2222,15.3464 53.8888,16.6798 55.5,17.5C 55.8333,16 56.1667,14.5 56.5,13C 56.9642,9.99326 55.9642,7.82659 53.5,6.5C 53.5,6.16667 53.5,5.83333 53.5,5.5 Z M 47.5,13.5 C 48.5,13.5 49.5,13.5 50.5,13.5C 51.3029,14.4232 51.4696,15.4232 51,16.5C 46.5917,20.6287 45.4251,19.6287 47.5,13.5 Z"/></g>
<g><path style="opacity:1" fill="#fb7f71" d="M 17.5,9.5 C 18.1667,9.5 18.8333,9.5 19.5,9.5C 19.5,9.83333 19.5,10.1667 19.5,10.5C 19.7151,12.7743 20.3818,14.941 21.5,17C 21.4428,19.2089 20.4428,20.7089 18.5,21.5C 18.8064,24.3854 18.4731,27.0521 17.5,29.5C 16.596,30.209 16.2627,31.209 16.5,32.5C 15.5,32.5 14.5,32.5 13.5,32.5C 13.5,27.8333 13.5,23.1667 13.5,18.5C 15.1132,18.9443 16.2798,19.9443 17,21.5C 17.1992,19.5975 18.0325,18.0975 19.5,17C 17.8866,14.7724 17.22,12.2724 17.5,9.5 Z"/></g>
<g><path style="opacity:0.325" fill="#ffc5c1" d="M 39.5,6.5 C 39.5,14.5 39.5,22.5 39.5,30.5C 38.8333,29.5 38.1667,28.5 37.5,27.5C 37.5,26.5 37.5,25.5 37.5,24.5C 37.5,19.1667 37.5,13.8333 37.5,8.5C 38.1667,7.83333 38.8333,7.16667 39.5,6.5 Z"/></g>
<g><path style="opacity:1" fill="#f68d80" d="M 19.5,10.5 C 21.8096,13.1019 23.6429,16.1019 25,19.5C 25.9003,16.2823 27.067,13.2823 28.5,10.5C 28.634,12.2915 28.3007,13.9582 27.5,15.5C 27.5,17.5 27.5,19.5 27.5,21.5C 29.7812,21.0773 31.4479,21.744 32.5,23.5C 32.5,24.8333 32.5,26.1667 32.5,27.5C 33.8333,27.5 35.1667,27.5 36.5,27.5C 36.2627,26.209 36.596,25.209 37.5,24.5C 37.5,25.5 37.5,26.5 37.5,27.5C 37.7155,32.5867 35.8822,33.5867 32,30.5C 32.058,21.6776 30.7247,21.3443 28,29.5C 26.6043,31.5268 24.9376,31.8602 23,30.5C 21.878,28.5932 21.0447,26.5932 20.5,24.5C 20.573,22.9731 19.9063,21.9731 18.5,21.5C 20.4428,20.7089 21.4428,19.2089 21.5,17C 20.3818,14.941 19.7151,12.7743 19.5,10.5 Z"/></g>
<g><path style="opacity:0.378" fill="#ffc2b1" d="M 12.5,32.5 C 11.8333,28.5 11.1667,24.5 10.5,20.5C 10.3505,19.448 10.5172,18.448 11,17.5C 12.3885,22.3722 12.8885,27.3722 12.5,32.5 Z"/></g>
<g><path style="opacity:0.398" fill="#fbbfb2" d="M 18.5,21.5 C 19.9063,21.9731 20.573,22.9731 20.5,24.5C 19.9544,27.6467 18.9544,30.6467 17.5,33.5C 17.5,32.1667 17.5,30.8333 17.5,29.5C 18.4731,27.0521 18.8064,24.3854 18.5,21.5 Z"/></g>
<g><path style="opacity:1" fill="#f9806e" d="M 45.5,14.5 C 45.2444,18.65 45.2444,22.65 45.5,26.5C 45.5,26.8333 45.5,27.1667 45.5,27.5C 44.596,28.209 44.2627,29.209 44.5,30.5C 43.1667,30.5 41.8333,30.5 40.5,30.5C 40.5,26.1667 40.5,21.8333 40.5,17.5C 41.8333,17.5 43.1667,17.5 44.5,17.5C 44.2627,16.209 44.596,15.209 45.5,14.5 Z"/></g>
<g><path style="opacity:1" fill="#f88879" d="M 64.5,11.5 C 64.8333,11.5 65.1667,11.5 65.5,11.5C 65.5774,12.7498 66.244,13.5831 67.5,14C 65.368,15.6204 65.0347,17.4537 66.5,19.5C 66.56,18.9569 66.8933,18.6236 67.5,18.5C 70.5056,20.3571 71.1723,22.8571 69.5,26C 70.5822,27.3297 71.2488,28.8297 71.5,30.5C 68.737,28.3187 65.737,27.9854 62.5,29.5C 60.9826,29.5106 59.8159,30.1772 59,31.5C 58.8333,30.8333 58.6667,30.1667 58.5,29.5C 60.2715,26.0843 61.2715,22.4176 61.5,18.5C 61.7073,15.7594 62.7073,13.4261 64.5,11.5 Z M 66.5,19.5 C 68.6246,20.3676 68.7913,21.3676 67,22.5C 65.3167,21.8235 65.1501,20.8235 66.5,19.5 Z"/></g>
<g><path style="opacity:1" fill="#f49a8c" d="M 83.5,19.5 C 83.1166,26.3035 85.7832,27.9702 91.5,24.5C 91.0472,25.4584 90.3805,26.2917 89.5,27C 87.567,27.2511 85.7337,27.7511 84,28.5C 82.8438,27.0072 82.0104,27.1739 81.5,29C 81.9054,29.9454 82.572,30.6121 83.5,31C 86.146,31.4974 88.8127,31.6641 91.5,31.5C 88.3601,32.6408 85.0267,32.8075 81.5,32C 80.6195,31.2917 79.9528,30.4584 79.5,29.5C 79.5,28.5 79.5,27.5 79.5,26.5C 80.5849,23.8959 81.9182,21.5626 83.5,19.5 Z"/></g>
<g><path style="opacity:0.729" fill="#f5c0b7" d="M 77.5,17.5 C 77.5,20.5 77.5,23.5 77.5,26.5C 76.8333,28.1667 76.1667,29.8333 75.5,31.5C 75.5,27.8333 75.5,24.1667 75.5,20.5C 76.1667,19.5 76.8333,18.5 77.5,17.5 Z"/></g>
<g><path style="opacity:1" fill="#f6887a" d="M 91.5,31.5 C 88.8127,31.6641 86.146,31.4974 83.5,31C 82.572,30.6121 81.9054,29.9454 81.5,29C 82.0104,27.1739 82.8438,27.0072 84,28.5C 85.7337,27.7511 87.567,27.2511 89.5,27C 90.3805,26.2917 91.0472,25.4584 91.5,24.5C 92.5676,23.5655 93.901,23.2322 95.5,23.5C 95.7407,27.0188 94.4074,29.6855 91.5,31.5 Z"/></g>
<g><path style="opacity:1" fill="#f0b1a7" d="M 102.5,14.5 C 103.167,19.8333 103.833,25.1667 104.5,30.5C 105.833,30.5 107.167,30.5 108.5,30.5C 108.5,28.8333 108.5,27.1667 108.5,25.5C 109.167,23.1667 109.833,20.8333 110.5,18.5C 110.79,22.9362 110.29,27.2695 109,31.5C 107.274,32.5762 105.441,32.7429 103.5,32C 102.525,26.2588 102.192,20.4254 102.5,14.5 Z"/></g>
<g><path style="opacity:1" fill="#ee9a91" d="M 61.5,18.5 C 61.2715,22.4176 60.2715,26.0843 58.5,29.5C 58.6667,30.1667 58.8333,30.8333 59,31.5C 59.8159,30.1772 60.9826,29.5106 62.5,29.5C 61.9578,32.9188 59.9578,34.5855 56.5,34.5C 56.4758,28.5703 58.1425,23.237 61.5,18.5 Z"/></g>
<g><path style="opacity:1" fill="#0149ac" d="M 17.5,40.5 C 17.0444,43.6443 16.0444,46.6443 14.5,49.5C 13.2638,48.7542 11.9305,48.4208 10.5,48.5C 10.7373,49.791 10.404,50.791 9.5,51.5C 7.32953,49.9138 4.99619,48.5804 2.5,47.5C 2.49136,45.6916 2.99136,44.0249 4,42.5C 4.33333,43.1667 4.66667,43.8333 5,44.5C 6.06743,43.8095 7.23409,43.3095 8.5,43C 7.69194,42.6924 7.02527,42.1924 6.5,41.5C 10.1073,40.5108 13.774,40.1774 17.5,40.5 Z"/></g>
<g><path style="opacity:1" fill="#0849a7" d="M 17.5,40.5 C 19.1137,42.0746 21.1137,42.7413 23.5,42.5C 23.5,43.8333 23.5,45.1667 23.5,46.5C 22.3406,47.4558 21.1739,48.4558 20,49.5C 17.0044,50.0354 14.1711,50.7021 11.5,51.5C 11.5,51.8333 11.5,52.1667 11.5,52.5C 10.8333,52.8333 10.1667,53.1667 9.5,53.5C 9.5,52.8333 9.5,52.1667 9.5,51.5C 10.404,50.791 10.7373,49.791 10.5,48.5C 11.9305,48.4208 13.2638,48.7542 14.5,49.5C 16.0444,46.6443 17.0444,43.6443 17.5,40.5 Z"/></g>
<g><path style="opacity:0.98" fill="#e6a3a1" d="M 55.5,43.5 C 54.205,44.4884 52.8717,45.4884 51.5,46.5C 50.0536,45.3871 48.3869,45.2204 46.5,46C 40.5984,48.4929 38.4317,52.6595 40,58.5C 37.3318,62.5945 35.8318,62.0945 35.5,57C 35.5838,54.4994 36.2505,52.166 37.5,50C 37.4285,41.879 34.0952,39.879 27.5,44C 26.7476,44.6708 26.4142,45.5041 26.5,46.5C 25.1667,48.8333 25.1667,51.1667 26.5,53.5C 26.5,54.8333 26.5,56.1667 26.5,57.5C 25.7321,56.7375 25.2321,55.7375 25,54.5C 24.5099,56.5454 24.6765,58.5454 25.5,60.5C 24.8333,60.1667 24.1667,59.8333 23.5,59.5C 23.5,55.1667 23.5,50.8333 23.5,46.5C 23.5,45.1667 23.5,43.8333 23.5,42.5C 27.4086,39.7991 31.7419,38.9658 36.5,40C 38.0685,42.3041 39.2352,44.8041 40,47.5C 44.4139,43.0322 49.5806,41.6989 55.5,43.5 Z"/></g>
<g><path style="opacity:1" fill="#335aaa" d="M 68.5,50.5 C 68.5,51.1667 68.5,51.8333 68.5,52.5C 67.7505,54.2462 66.4172,55.2462 64.5,55.5C 62.4524,53.7725 60.6191,51.7725 59,49.5C 58.3292,50.2524 57.4959,50.5858 56.5,50.5C 56.8333,51.8333 57.1667,53.1667 57.5,54.5C 54.9931,54.6322 54.3264,55.6322 55.5,57.5C 53.9382,57.2671 52.6049,56.6005 51.5,55.5C 48.9471,52.3793 48.9471,49.3793 51.5,46.5C 52.8717,45.4884 54.205,44.4884 55.5,43.5C 59.0364,42.1036 62.3697,42.6036 65.5,45C 67.607,46.2635 68.607,48.0968 68.5,50.5 Z"/></g>
<g><path style="opacity:1" fill="#0448af" d="M 56.5,50.5 C 55.8592,52.0423 54.8592,53.3757 53.5,54.5C 52.3526,52.2351 52.1859,49.9018 53,47.5C 55.2534,44.9052 57.4201,45.0719 59.5,48C 57.8807,48.2355 56.8807,49.0689 56.5,50.5 Z"/></g>
<g><path style="opacity:1" fill="#335dac" d="M 97.5,45.5 C 102.332,45.7733 104.332,48.4399 103.5,53.5C 99.4839,52.4672 98.4839,50.1339 100.5,46.5C 92.8333,46.5 85.1667,46.5 77.5,46.5C 77.5,47.5 77.5,48.5 77.5,49.5C 76.5386,51.2646 76.2053,53.2646 76.5,55.5C 76.5153,59.5598 76.0153,63.5598 75,67.5C 74.5831,68.756 73.7498,69.4226 72.5,69.5C 74.309,63.0461 75.309,56.3794 75.5,49.5C 70.5643,48.9626 69.5643,50.4626 72.5,54C 71.2382,56.1699 70.2382,58.3365 69.5,60.5C 69.5,59.8333 69.5,59.1667 69.5,58.5C 69.7947,56.2646 69.4614,54.2646 68.5,52.5C 68.5,51.8333 68.5,51.1667 68.5,50.5C 68.5347,43.2793 71.7014,41.2793 78,44.5C 84.6264,43.0234 91.1264,43.3567 97.5,45.5 Z"/></g>
<g><path style="opacity:1" fill="#2755ad" d="M 119.5,45.5 C 119.5,47.5 119.5,49.5 119.5,51.5C 117.196,52.1632 114.863,52.8298 112.5,53.5C 111.614,54.325 111.281,55.325 111.5,56.5C 109.801,56.6602 108.134,56.4935 106.5,56C 107.451,55.2825 107.617,54.4491 107,53.5C 106.329,54.2524 105.496,54.5858 104.5,54.5C 104.466,51.4202 105.466,48.7535 107.5,46.5C 111.298,45.5166 115.298,45.1832 119.5,45.5 Z"/></g>
<g><path style="opacity:1" fill="#044aa8" d="M 2.5,47.5 C 4.99619,48.5804 7.32953,49.9138 9.5,51.5C 9.5,52.1667 9.5,52.8333 9.5,53.5C 9.33669,55.8568 9.50335,58.1902 10,60.5C 12.8602,62.3808 12.3602,63.8808 8.5,65C 9.05596,65.3826 9.38929,65.8826 9.5,66.5C 9.5,67.8333 9.5,69.1667 9.5,70.5C 8.39261,71.9923 6.89261,72.9923 5,73.5C 3.93015,73.472 3.09682,73.1386 2.5,72.5C 4.19686,70.6948 5.03019,68.3615 5,65.5C 7.1087,64.9647 7.6087,63.9647 6.5,62.5C 8.6363,59.401 8.96963,56.0677 7.5,52.5C 5.99753,56.374 5.33087,56.0407 5.5,51.5C 4.5,51.5 3.5,51.5 2.5,51.5C 2.5,50.1667 2.5,48.8333 2.5,47.5 Z"/></g>
<g><path style="opacity:1" fill="#5f6a92" d="M 26.5,46.5 C 27.8333,48.8333 27.8333,51.1667 26.5,53.5C 25.1667,51.1667 25.1667,48.8333 26.5,46.5 Z"/></g>
<g><path style="opacity:0.725" fill="#6d98db" d="M 77.5,49.5 C 77.8333,50.1667 78.1667,50.8333 78.5,51.5C 77.8333,52.8333 77.1667,54.1667 76.5,55.5C 76.2053,53.2646 76.5386,51.2646 77.5,49.5 Z"/></g>
<g><path style="opacity:1" fill="#014aad" d="M 86.5,51.5 C 86.1961,52.1499 85.8627,52.8165 85.5,53.5C 87.4375,55.1485 88.4375,57.3152 88.5,60C 88.2022,62.8477 87.8688,65.6811 87.5,68.5C 86.5,68.5 85.5,68.5 84.5,68.5C 84.6661,62.8236 84.4994,57.1569 84,51.5C 83.6174,50.944 83.1174,50.6107 82.5,50.5C 85.845,46.2088 87.1783,46.5422 86.5,51.5 Z"/></g>
<g><path style="opacity:1" fill="#0249ae" d="M 103.5,53.5 C 103.5,54.1667 103.5,54.8333 103.5,55.5C 102.178,55.33 101.011,55.6634 100,56.5C 99.6097,53.8958 98.7763,51.5625 97.5,49.5C 97.1667,49.5 96.8333,49.5 96.5,49.5C 96.5,48.8333 96.1667,48.5 95.5,48.5C 94.4168,48.5394 93.4168,48.8728 92.5,49.5C 90.3968,47.1201 89.2301,47.7868 89,51.5C 88.2303,52.5981 87.397,52.5981 86.5,51.5C 87.1783,46.5422 85.845,46.2088 82.5,50.5C 80.7839,50.3713 79.1172,50.038 77.5,49.5C 77.5,48.5 77.5,47.5 77.5,46.5C 85.1667,46.5 92.8333,46.5 100.5,46.5C 98.4839,50.1339 99.4839,52.4672 103.5,53.5 Z"/></g>
<g><path style="opacity:1" fill="#3357a8" d="M 23.5,46.5 C 23.5,50.8333 23.5,55.1667 23.5,59.5C 19.0437,62.2105 14.3771,64.5439 9.5,66.5C 9.38929,65.8826 9.05596,65.3826 8.5,65C 12.3602,63.8808 12.8602,62.3808 10,60.5C 9.50335,58.1902 9.33669,55.8568 9.5,53.5C 10.1667,53.1667 10.8333,52.8333 11.5,52.5C 11.1489,54.8695 10.9822,57.2028 11,59.5C 14.1783,58.33 16.6783,56.33 18.5,53.5C 18.2907,52.914 17.9574,52.414 17.5,52C 15.5273,51.5045 13.5273,51.3379 11.5,51.5C 14.1711,50.7021 17.0044,50.0354 20,49.5C 21.1739,48.4558 22.3406,47.4558 23.5,46.5 Z"/></g>
<g><path style="opacity:1" fill="#0249ab" d="M 2.5,51.5 C 3.5,51.5 4.5,51.5 5.5,51.5C 5.33087,56.0407 5.99753,56.374 7.5,52.5C 8.96963,56.0677 8.6363,59.401 6.5,62.5C 7.6087,63.9647 7.1087,64.9647 5,65.5C 5.03019,68.3615 4.19686,70.6948 2.5,72.5C 1.962,70.8828 1.62867,69.2161 1.5,67.5C 2.48808,62.3595 2.82141,57.0262 2.5,51.5 Z"/></g>
<g><path style="opacity:1" fill="#0449a7" d="M 97.5,49.5 C 98.7763,51.5625 99.6097,53.8958 100,56.5C 101.011,55.6634 102.178,55.33 103.5,55.5C 103.167,56.1667 102.833,56.8333 102.5,57.5C 101.681,60.3054 101.181,63.3054 101,66.5C 100.29,67.9733 99.1238,68.6399 97.5,68.5C 97.5,62.1667 97.5,55.8333 97.5,49.5 Z"/></g>
<g><path style="opacity:1" fill="#184daa" d="M 111.5,56.5 C 111.833,56.5 112.167,56.5 112.5,56.5C 113.209,57.404 114.209,57.7373 115.5,57.5C 115.5,58.5 115.5,59.5 115.5,60.5C 113.62,60.2291 112.287,60.8958 111.5,62.5C 110.833,64.8333 110.167,67.1667 109.5,69.5C 107.833,69.5 106.167,69.5 104.5,69.5C 104.5,64.5 104.5,59.5 104.5,54.5C 105.496,54.5858 106.329,54.2524 107,53.5C 107.617,54.4491 107.451,55.2825 106.5,56C 108.134,56.4935 109.801,56.6602 111.5,56.5 Z"/></g>
<g><path style="opacity:1" fill="#2d58a9" d="M 57.5,54.5 C 61.5416,55.8514 64.8749,58.1848 67.5,61.5C 67.5,62.5 67.5,63.5 67.5,64.5C 67.573,66.0269 66.9063,67.0269 65.5,67.5C 65.3573,65.7376 65.6906,64.0709 66.5,62.5C 64.7609,60.2589 62.5942,58.5922 60,57.5C 60.0187,59.1075 60.1854,60.7741 60.5,62.5C 58.8333,61.1667 57.1667,59.8333 55.5,58.5C 55.5,58.1667 55.5,57.8333 55.5,57.5C 54.3264,55.6322 54.9931,54.6322 57.5,54.5 Z"/></g>
<g><path style="opacity:1" fill="#0948aa" d="M 72.5,69.5 C 70.8212,69.7148 69.8212,69.0481 69.5,67.5C 69.5,65.1667 69.5,62.8333 69.5,60.5C 70.2382,58.3365 71.2382,56.1699 72.5,54C 69.5643,50.4626 70.5643,48.9626 75.5,49.5C 75.309,56.3794 74.309,63.0461 72.5,69.5 Z"/></g>
<g><path style="opacity:0.851" fill="#4875bf" d="M 107.5,46.5 C 105.466,48.7535 104.466,51.4202 104.5,54.5C 104.5,59.5 104.5,64.5 104.5,69.5C 103.833,66.5 103.167,63.5 102.5,60.5C 102.5,59.5 102.5,58.5 102.5,57.5C 102.833,56.8333 103.167,56.1667 103.5,55.5C 103.5,54.8333 103.5,54.1667 103.5,53.5C 104.332,48.4399 102.332,45.7733 97.5,45.5C 101.304,42.4253 103.804,43.4253 105,48.5C 105.417,47.244 106.25,46.5774 107.5,46.5 Z"/></g>
<g><path style="opacity:1" fill="#5472af" d="M 112.5,56.5 C 117.159,56.0146 118.492,57.848 116.5,62C 114.866,62.4935 113.199,62.6602 111.5,62.5C 112.287,60.8958 113.62,60.2291 115.5,60.5C 115.5,59.5 115.5,58.5 115.5,57.5C 114.209,57.7373 113.209,57.404 112.5,56.5 Z"/></g>
<g><path style="opacity:1" fill="#4269ad" d="M 23.5,42.5 C 21.1137,42.7413 19.1137,42.0746 17.5,40.5C 13.774,40.1774 10.1073,40.5108 6.5,41.5C 7.02527,42.1924 7.69194,42.6924 8.5,43C 7.23409,43.3095 6.06743,43.8095 5,44.5C 4.66667,43.8333 4.33333,43.1667 4,42.5C 2.99136,44.0249 2.49136,45.6916 2.5,47.5C 2.5,48.8333 2.5,50.1667 2.5,51.5C 2.82141,57.0262 2.48808,62.3595 1.5,67.5C 1.5,67.1667 1.5,66.8333 1.5,66.5C 1.3336,58.16 1.50027,49.8267 2,41.5C 7.48446,38.0778 13.3178,37.5778 19.5,40C 21.0664,40.6082 22.3998,41.4415 23.5,42.5 Z"/></g>
<g><path style="opacity:0.243" fill="#aed0f6" d="M 69.5,58.5 C 69.5,59.1667 69.5,59.8333 69.5,60.5C 69.5,62.8333 69.5,65.1667 69.5,67.5C 68.8333,66.5 68.1667,65.5 67.5,64.5C 67.5,63.5 67.5,62.5 67.5,61.5C 68.1667,60.5 68.8333,59.5 69.5,58.5 Z"/></g>
<g><path style="opacity:1" fill="#3d5fa9" d="M 95.5,48.5 C 95.1667,49.1667 94.8333,49.8333 94.5,50.5C 93.469,51.2485 92.3024,51.9152 91,52.5C 90.4153,57.511 89.7486,62.511 89,67.5C 87.4348,70.8943 85.4348,71.2277 83,68.5C 82.5006,63.1771 82.334,57.8437 82.5,52.5C 80.901,52.7678 79.5676,52.4345 78.5,51.5C 78.1667,50.8333 77.8333,50.1667 77.5,49.5C 79.1172,50.038 80.7839,50.3713 82.5,50.5C 83.1174,50.6107 83.6174,50.944 84,51.5C 84.4994,57.1569 84.6661,62.8236 84.5,68.5C 85.5,68.5 86.5,68.5 87.5,68.5C 87.8688,65.6811 88.2022,62.8477 88.5,60C 88.4375,57.3152 87.4375,55.1485 85.5,53.5C 85.8627,52.8165 86.1961,52.1499 86.5,51.5C 87.397,52.5981 88.2303,52.5981 89,51.5C 89.2301,47.7868 90.3968,47.1201 92.5,49.5C 93.4168,48.8728 94.4168,48.5394 95.5,48.5 Z"/></g>
<g><path style="opacity:0.996" fill="#4460a0" d="M 52.5,61.5 C 54.4358,62.259 56.2691,63.259 58,64.5C 58.9021,64.2568 59.7354,63.9234 60.5,63.5C 60.2089,64.6491 59.3756,65.3158 58,65.5C 56.1348,65.2945 54.4681,64.6278 53,63.5C 52.5,63.8333 52,64.1667 51.5,64.5C 52.8262,65.6422 53.8262,66.9755 54.5,68.5C 52.326,68.2503 50.6594,67.2503 49.5,65.5C 49.0882,63.0274 50.0882,61.6941 52.5,61.5 Z"/></g>
<g><path style="opacity:0.531" fill="#91b8e6" d="M 95.5,48.5 C 96.1667,48.5 96.5,48.8333 96.5,49.5C 96.5,56.1667 96.5,62.8333 96.5,69.5C 95.8333,63.1667 95.1667,56.8333 94.5,50.5C 94.8333,49.8333 95.1667,49.1667 95.5,48.5 Z"/></g>
<g><path style="opacity:0.941" fill="#e6a59b" d="M 26.5,57.5 C 29.4356,63.1005 33.4356,67.7672 38.5,71.5C 39.4916,71.3284 40.1583,71.6618 40.5,72.5C 40.0831,73.1239 39.4164,73.4573 38.5,73.5C 32.4862,70.8195 28.1529,66.4862 25.5,60.5C 24.6765,58.5454 24.5099,56.5454 25,54.5C 25.2321,55.7375 25.7321,56.7375 26.5,57.5 Z"/></g>
<g><path style="opacity:1" fill="#0749a5" d="M 65.5,67.5 C 61.8648,68.1143 58.1981,68.4476 54.5,68.5C 53.8262,66.9755 52.8262,65.6422 51.5,64.5C 52,64.1667 52.5,63.8333 53,63.5C 54.4681,64.6278 56.1348,65.2945 58,65.5C 59.3756,65.3158 60.2089,64.6491 60.5,63.5C 60.5,63.1667 60.5,62.8333 60.5,62.5C 60.1854,60.7741 60.0187,59.1075 60,57.5C 62.5942,58.5922 64.7609,60.2589 66.5,62.5C 65.6906,64.0709 65.3573,65.7376 65.5,67.5 Z"/></g>
<g><path style="opacity:0.498" fill="#739acd" d="M 65.5,67.5 C 61.9563,69.5691 58.2896,69.9024 54.5,68.5C 58.1981,68.4476 61.8648,68.1143 65.5,67.5 Z"/></g>
<g><path style="opacity:1" fill="#254f94" d="M 96.5,49.5 C 96.8333,49.5 97.1667,49.5 97.5,49.5C 97.5,55.8333 97.5,62.1667 97.5,68.5C 99.1238,68.6399 100.29,67.9733 101,66.5C 101.181,63.3054 101.681,60.3054 102.5,57.5C 102.5,58.5 102.5,59.5 102.5,60.5C 102.664,63.1873 102.497,65.854 102,68.5C 100.322,70.5532 98.4888,70.8866 96.5,69.5C 96.5,62.8333 96.5,56.1667 96.5,49.5 Z"/></g>
<g><path style="opacity:0.969" fill="#e99c91" d="M 51.5,55.5 C 52.6049,56.6005 53.9382,57.2671 55.5,57.5C 55.5,57.8333 55.5,58.1667 55.5,58.5C 53.5,58.5 52.5,59.5 52.5,61.5C 50.0882,61.6941 49.0882,63.0274 49.5,65.5C 46.681,68.075 43.681,70.4083 40.5,72.5C 40.1583,71.6618 39.4916,71.3284 38.5,71.5C 43.6143,66.7273 47.9477,61.394 51.5,55.5 Z"/></g>
<g><path style="opacity:1" fill="#5a7baf" d="M 104.5,69.5 C 106.167,69.5 107.833,69.5 109.5,69.5C 107.714,71.9224 106.048,71.9224 104.5,69.5 Z"/></g>
<g><path style="opacity:1" fill="#637fb8" d="M 1.5,66.5 C 1.5,66.8333 1.5,67.1667 1.5,67.5C 1.62867,69.2161 1.962,70.8828 2.5,72.5C 3.09682,73.1386 3.93015,73.472 5,73.5C 6.89261,72.9923 8.39261,71.9923 9.5,70.5C 9.13111,75.0119 6.79778,76.5119 2.5,75C 0.44772,72.226 0.114386,69.3927 1.5,66.5 Z"/></g>
</svg>
